<?xml version="1.0" encoding="utf-8"?>
<!-- Generator: Adobe Illustrator 16.0.0, SVG Export Plug-In . SVG Version: 6.00 Build 0)  -->
<!DOCTYPE svg PUBLIC "-//W3C//DTD SVG 1.1//EN" "http://www.w3.org/Graphics/SVG/1.1/DTD/svg11.dtd">
<svg version="1.1" id="Слой_1" xmlns="http://www.w3.org/2000/svg" xmlns:xlink="http://www.w3.org/1999/xlink" x="0px" y="0px"
	 width="35px" height="24px" viewBox="0 0 35 24" enable-background="new 0 0 35 24" xml:space="preserve">
<title>Group 4</title>
<desc>Created with Sketch.</desc>
<g id="Design">
	<g id="text-1400" transform="translate(-120.000000, -1761.000000)">
		<g id="Group" transform="translate(120.000000, 1622.000000)">
			<g id="Group-4" transform="translate(0.000000, 139.000000)">
				<rect id="Rectangle" x="3" y="6" fill="#231F20" width="29" height="5"/>
				<path fill="#231F20" d="M29.5,24h-24C2.467,24,0,21.532,0,18.5v-13C0,2.467,2.467,0,5.5,0h24C32.532,0,35,2.467,35,5.5v13
					C35,21.532,32.532,24,29.5,24z M5.5,3C4.122,3,3,4.122,3,5.5v13C3,19.879,4.122,21,5.5,21h24c1.379,0,2.5-1.121,2.5-2.5v-13
					C32,4.122,30.879,3,29.5,3H5.5z"/>
			</g>
		</g>
	</g>
</g>
</svg>
