<?xml version="1.0" encoding="UTF-8"?>
<svg width="18px" height="18px" viewBox="0 0 18 18" version="1.1" xmlns="http://www.w3.org/2000/svg" xmlns:xlink="http://www.w3.org/1999/xlink">
    <!-- Generator: sketchtool 50 (54983) - http://www.bohemiancoding.com/sketch -->
    <title>8995F0C4-E786-4A60-92FC-E06B222C1164</title>
    <desc>Created with sketchtool.</desc>
    <defs></defs>
    <g id="Design" stroke="none" stroke-width="1" fill="none" fill-rule="evenodd">
        <g id="style-list" transform="translate(-1356.000000, -3263.000000)">
            <g id="top-1400-copy" transform="translate(0.000000, 3237.000000)">
                <g id="cancel-big" transform="translate(1345.000000, 15.000000)">
                    <rect id="Rectangle-9" fill="#D8D8D8" opacity="0" x="0" y="0" width="40" height="40"></rect>
                    <path d="M28.7515,27.297 L21.4835,20.028 L28.7215,12.833 C29.1165,12.442 29.1165,11.809 28.7215,11.419 C28.3275,11.029 27.6875,11.029 27.2935,11.419 L20.0625,18.607 L12.7535,11.297 C12.3595,10.901 11.7195,10.901 11.3255,11.297 C10.9315,11.692 10.9315,12.334 11.3255,12.729 L18.6265,20.031 L11.2955,27.318 C10.9015,27.709 10.9015,28.342 11.2955,28.732 C11.6895,29.123 12.3295,29.123 12.7245,28.732 L20.0485,21.452 L27.3245,28.728 C27.7185,29.124 28.3585,29.124 28.7525,28.728 C29.1455,28.334 29.1455,27.693 28.7515,27.297 Z" id="Shape" fill="#231F20"></path>
                </g>
            </g>
        </g>
    </g>
</svg>