<?xml version="1.0" encoding="UTF-8"?>
<svg width="46px" height="33px" viewBox="0 0 46 33" version="1.1" xmlns="http://www.w3.org/2000/svg" xmlns:xlink="http://www.w3.org/1999/xlink">
    <!-- Generator: Sketch 50.2 (55047) - http://www.bohemiancoding.com/sketch -->
    <title>delivery</title>
    <desc>Created with Sketch.</desc>
    <defs></defs>
    <g id="Design" stroke="none" stroke-width="1" fill="none" fill-rule="evenodd">
        <g id="catalog-1400" transform="translate(-128.000000, -2968.000000)" fill="#1D1D1B" fill-rule="nonzero">
            <g id="Group-3" transform="translate(0.000000, 2889.000000)">
                <g id="Group-11" transform="translate(111.000000, 54.000000)">
                    <g id="if_00-ELASTOFONT-STORE-READY_delivery_2703076-(1)" transform="translate(17.000000, 25.000000)">
                        <path d="M30.9579327,2.76021637 L30.9579327,2.23557692 C30.9579327,1.47115385 30.3377404,0.850961538 29.5733174,0.850961538 L2.22896628,0.850961538 C1.4645432,0.850961538 0.844350892,1.47115385 0.844350892,2.23557692 L0.844350892,27.3028846 C0.844350892,28.0673077 1.4645432,28.6875 2.22896628,28.6875 L7.94208228,28.6875 C8.54920363,30.8117489 10.4861779,32.3798077 12.8028846,32.3798077 C15.1195913,32.3798077 17.0565654,30.8117489 17.663687,28.6875 L29.5733174,28.6875 L31.8934046,28.6875 C32.5005259,30.8117489 34.4375002,32.3798077 36.7542069,32.3798077 C39.0709136,32.3798077 41.0078877,30.8117489 41.6150092,28.6875 L43.4501205,28.6875 C43.5070241,28.6875 43.5554766,28.6616961 43.6105773,28.6550481 C43.665678,28.6616963 43.7141305,28.6875 43.7710341,28.6875 C44.5354572,28.6875 45.1556495,28.0673077 45.1556495,27.3028846 L45.1556495,16.7064303 C45.1556491,9.402156 38.9030198,3.39325422 30.9579327,2.76021637 Z M42.3331204,15.7833534 L37.1328124,15.7833534 C35.8058894,15.4200722 35.5372596,13.0438702 35.5372596,9.34344942 L35.5372596,6.76633865 C39.3109225,8.51581274 41.9676983,11.8673753 42.3331204,15.7833534 Z M33.6911057,6.07279145 L33.6911057,9.34344942 C33.6911057,13.3566705 33.9308894,17.0084134 36.8371394,17.6105767 C36.8984375,17.6231969 36.9615385,17.629507 37.0246394,17.629507 L42.3864183,17.629507 L42.3864183,25.918269 L41.615009,25.918269 C41.0078877,23.7940202 39.0709134,22.2259614 36.7542067,22.2259614 C34.4375,22.2259614 32.5005259,23.7940202 31.8934044,25.918269 L29.5733172,25.918269 L17.6636868,25.918269 C17.4582708,25.1995944 17.1033278,24.5506686 16.6270282,24 L29.5733172,24 C29.9450495,24 30.2605542,23.7779071 30.406926,23.4616135 C30.7338115,23.2081955 30.9579326,22.8299278 30.9579326,22.3846154 L30.9579326,5.53474302 C31.9048978,5.62443655 32.8170447,5.81148591 33.6911057,6.07279145 Z M28.188702,22.1538462 L3.61358166,22.1538462 L3.61358166,3.62019231 L28.188702,3.62019231 L28.188702,22.1538462 Z M3.61358166,24 L8.97874086,24 C8.50244129,24.5506686 8.14749846,25.1995944 7.94208228,25.9182692 L3.61358166,25.9182692 L3.61358166,24 Z M12.8028846,29.6105769 C11.5300481,29.6105769 10.4951923,28.5757211 10.4951923,27.3028846 C10.4951923,26.0300481 11.5300481,24.9951923 12.8028846,24.9951923 C14.0741436,24.9951923 15.1071964,26.0277945 15.1096754,27.2983774 C15.1096754,27.299955 15.108774,27.3013071 15.108774,27.3028846 C15.108774,27.3044622 15.1096754,27.3058143 15.1096754,27.3073918 C15.1071964,28.5779747 14.0741436,29.6105769 12.8028846,29.6105769 Z M36.7542067,29.6105769 C35.4813702,29.6105769 34.4465144,28.5757211 34.4465144,27.3028846 C34.4465144,26.0300481 35.4813702,24.9951923 36.7542067,24.9951923 C38.0270432,24.9951923 39.061899,26.0300481 39.061899,27.3028846 C39.061899,28.5757211 38.0270432,29.6105769 36.7542067,29.6105769 Z" id="delivery"></path>
                    </g>
                </g>
            </g>
        </g>
    </g>
</svg>