<?xml version="1.0" encoding="utf-8"?>
<!-- Generator: Adobe Illustrator 16.0.0, SVG Export Plug-In . SVG Version: 6.00 Build 0)  -->
<!DOCTYPE svg PUBLIC "-//W3C//DTD SVG 1.1//EN" "http://www.w3.org/Graphics/SVG/1.1/DTD/svg11.dtd">
<svg version="1.1" id="Слой_1" xmlns="http://www.w3.org/2000/svg" xmlns:xlink="http://www.w3.org/1999/xlink" x="0px" y="0px"
	 width="20px" height="18px" viewBox="0 0 20 18" enable-background="new 0 0 20 18" xml:space="preserve">
<path fill="#231F20" d="M10,18.044l-0.452-0.229C8.396,17.232,0,10.698,0,5.55C0,2.822,2.057,0,5.5,0C7.498,0,9.071,1.083,10,1.896
	C10.93,1.083,12.504,0,14.5,0C18.555,0,20,2.867,20,5.55c0,5.148-8.396,11.683-9.548,12.266L10,18.044z M5.5,2
	C3.227,2,2,3.829,2,5.55c0,3.504,6.05,8.826,8,10.195c1.95-1.369,8-6.691,8-10.195C18,3.93,17.393,2,14.5,2
	c-1.833,0-3.305,1.489-3.789,1.978L10,4.697l-0.711-0.72C8.805,3.489,7.334,2,5.5,2z"/>
</svg>
