<svg xmlns="http://www.w3.org/2000/svg" width="19" height="19" viewBox="0 0 19 19">
    <g fill="#A7A7AF" fill-rule="nonzero" transform="translate(.226)">
        <path d="M9.226 4.558c-2.553 0-4.668 2.079-4.668 4.668a4.653 4.653 0 0 0 4.668 4.667c2.589 0 4.667-2.115 4.667-4.667 0-2.553-2.115-4.668-4.667-4.668zm0 7.658c-1.641 0-2.99-1.35-2.99-2.99 0-1.641 1.349-2.99 2.99-2.99 1.64 0 2.99 1.349 2.99 2.99 0 1.64-1.35 2.99-2.99 2.99z"/>
        <circle cx="13.592" cy="4.476" r="1.057"/>
        <path d="M16.628 1.495C15.68.511 14.33 0 12.799 0H5.287C2.115 0 0 2.115 0 5.287v7.476c0 1.568.51 2.917 1.532 3.901.984.948 2.297 1.422 3.792 1.422h7.439c1.568 0 2.88-.51 3.828-1.422.985-.948 1.495-2.297 1.495-3.865V5.287c0-1.531-.51-2.844-1.458-3.792zm-.146 11.304c0 1.13-.401 2.042-1.058 2.662-.656.62-1.567.948-2.661.948h-7.44c-1.093 0-2.005-.328-2.661-.948-.656-.656-.985-1.568-.985-2.698V5.287c0-1.094.329-2.005.985-2.662.62-.62 1.568-.948 2.662-.948h7.512c1.093 0 2.005.329 2.661.985.62.656.985 1.568.985 2.625V12.8z"/>
    </g>
</svg>
