<svg xmlns="http://www.w3.org/2000/svg" width="12" height="20" viewBox="0 0 12 20">
    <path fill="#A7A7AF" fill-rule="nonzero" d="M5.657 2.952c1.15 0 2.086.936 2.086 2.086s-.935 2.085-2.086 2.085a2.089 2.089 0 0 1-2.085-2.085c0-1.15.936-2.086 2.085-2.086zm0 7.122a5.042 5.042 0 0 0 5.038-5.036A5.043 5.043 0 0 0 5.657 0 5.043 5.043 0 0 0 .62 5.038a5.042 5.042 0 0 0 5.037 5.036zm2.039 4.11a9.432 9.432 0 0 0 2.925-1.212 1.476 1.476 0 0 0-1.573-2.5 6.396 6.396 0 0 1-6.782 0 1.476 1.476 0 1 0-1.572 2.5c.91.572 1.9.978 2.925 1.212L.802 17a1.476 1.476 0 0 0 2.089 2.087l2.766-2.768 2.769 2.768A1.475 1.475 0 1 0 10.512 17l-2.816-2.816z"/>
</svg>
