<?xml version="1.0" encoding="UTF-8"?>
<svg width="44px" height="34px" viewBox="0 0 44 34" version="1.1" xmlns="http://www.w3.org/2000/svg" xmlns:xlink="http://www.w3.org/1999/xlink">
    <!-- Generator: Sketch 50.2 (55047) - http://www.bohemiancoding.com/sketch -->
    <title>pay</title>
    <desc>Created with Sketch.</desc>
    <defs></defs>
    <g id="Design" stroke="none" stroke-width="1" fill="none" fill-rule="evenodd">
        <g id="catalog-1400" transform="translate(-928.000000, -2966.000000)" fill="#1D1D1B" fill-rule="nonzero">
            <g id="Group-3" transform="translate(0.000000, 2889.000000)">
                <g id="Group-11-Copy-2" transform="translate(910.000000, 54.000000)">
                    <g id="pay" transform="translate(18.000000, 23.000000)">
                        <path d="M41.1282553,9.77799488 L36.9963176,9.77799488 L35.8126628,3.0712892 C35.5405274,1.51367197 34.0384115,0.473470167 32.4915365,0.7420249 L2.37223305,6.05403655 C0.81640625,6.3279624 -0.227376417,7.81933598 0.0483398667,9.37695322 L3.26025388,27.5885417 C3.39274082,28.3422851 3.80989583,29.0011393 4.43652348,29.441569 C4.92529308,29.7835286 5.49283863,29.9625652 6.07649753,29.9625652 C6.24479185,29.9625652 6.41308617,29.9482422 6.5813803,29.917806 L7.67887377,29.723999 L7.67887377,31.1012369 C7.67887377,32.6821289 8.96435558,33.9676107 10.5452475,33.9676107 L41.1282553,33.9676107 C42.7091473,33.9676107 43.9964193,32.6821289 43.9964193,31.1012369 L43.9964193,12.6443685 C43.9964193,11.0634765 42.7091471,9.77799488 41.1282553,9.77799488 Z M33.1056315,3.54752613 L33.6312154,6.5266928 L15.188558,9.77799488 L10.5452473,9.77799488 C9.5716247,9.77799488 8.71280923,10.2677715 8.19449858,11.0117798 L3.28050745,11.8778687 L3.2745768,11.8440756 L2.85026042,8.7610678 L33.1056315,3.54752613 Z M5.96728513,27.1123047 L4.11817413,16.6274822 L7.67887358,15.9995118 L7.67887358,26.8836976 L5.96728513,27.1123047 Z M41.2464193,31.1012369 C41.2464193,31.1656902 41.1927083,31.2176107 41.1282553,31.2176107 L10.4288738,31.1012369 L10.4288738,15.6289063 L10.5452475,12.5279947 L41.2464195,12.6443685 L41.2464195,31.1012369 L41.2464193,31.1012369 Z" id="Shape"></path>
                        <path d="M14.727539,24.4500325 L16.9923503,24.4500325 C18.3548178,24.4500325 19.4630535,23.3417968 19.4630535,21.9793293 L19.4630535,19.714518 C19.4630535,18.3538409 18.3548178,17.2456052 16.9923503,17.2456052 L14.727539,17.2456052 C13.3668619,17.2456052 12.2586262,18.3538409 12.2586262,19.714518 L12.2586262,21.9793293 C12.2586262,23.341797 13.3668619,24.4500325 14.727539,24.4500325 Z M14.0919596,19.7145182 C14.0919596,19.3636066 14.3766275,19.0789387 14.727539,19.0789387 L16.9923503,19.0789387 C17.3432618,19.0789387 17.6297202,19.3636066 17.6297202,19.7145182 L17.6297202,21.9793295 C17.6297202,22.330241 17.3432618,22.6166993 16.9923503,22.6166993 L14.727539,22.6166993 C14.3766275,22.6166993 14.0919596,22.330241 14.0919596,21.9793295 L14.0919596,19.7145182 Z" id="Shape"></path>
                        <path d="M32.6097006,25.5815429 C32.2516277,25.9396158 32.2516277,26.519694 32.6097006,26.877767 C32.7887371,27.0568035 33.0232747,27.1463217 33.2578125,27.1463217 C33.4923503,27.1463217 33.7268881,27.0568035 33.9059244,26.877767 C36.6666667,24.1188152 36.6666667,19.6267904 33.9059244,16.8678386 C33.5478515,16.5097657 32.9677733,16.5097657 32.6097004,16.8678386 C32.2516275,17.2259116 32.2516275,17.8059898 32.6097004,18.1640627 C34.654297,20.2086589 34.654297,23.5369467 32.6097006,25.5815429 Z" id="Shape"></path>
                        <path d="M30.4308268,24.4930012 C30.0727539,24.8510742 30.0727539,25.4311524 30.4308268,25.7892253 C30.6098634,25.9682618 30.844401,26.05778 31.0789387,26.05778 C31.3134765,26.05778 31.5480143,25.9682618 31.7270507,25.7892253 C33.8862304,23.6300456 33.8862304,20.1155599 31.7270507,17.9563803 C31.3689778,17.5983074 30.7888995,17.5983074 30.4308266,17.9563803 C30.0727537,18.3144532 30.0727537,18.8945314 30.4308266,19.2526044 C31.8756511,20.6974283 31.8756511,23.0481771 30.4308268,24.4930012 Z" id="Shape"></path>
                        <path d="M28.2519532,24.7006836 C28.4309898,24.8797202 28.6655274,24.9692384 28.9000652,24.9692384 C29.1346029,24.9692384 29.3691407,24.8797202 29.5481771,24.7006836 C31.1057943,23.1412761 31.1057943,20.6043295 29.5481771,19.0467122 C29.1901042,18.6886393 28.610026,18.6886393 28.251953,19.0467122 C27.8938801,19.4047851 27.8938801,19.9848634 28.251953,20.3429363 C29.0952147,21.1861979 29.0952147,22.5594077 28.251953,23.4044598 C27.8938803,23.7625325 27.8938803,24.3444011 28.2519532,24.7006836 Z" id="Shape"></path>
                        <path d="M36.7758789,21.8736979 C36.7758789,23.6837565 36.0704753,25.3881836 34.7867839,26.671875 C34.428711,27.0299479 34.428711,27.6100261 34.7867839,27.9680991 C34.9658205,28.1471356 35.2003581,28.2366538 35.4348958,28.2366538 C35.6694336,28.2366538 35.9039714,28.1471356 36.0830078,27.9680991 C37.7122396,26.3388672 38.6092122,24.1743166 38.6092122,21.8736979 C38.6092122,19.571289 37.7122396,17.4085286 36.0830078,15.7792968 C35.7249349,15.4212239 35.1448566,15.4212239 34.7867837,15.7792968 C34.4287108,16.1373697 34.4287108,16.7174479 34.7867837,17.0755208 C36.0704753,18.357422 36.7758789,20.0618491 36.7758789,21.8736979 Z" id="Shape"></path>
                        <path d="M13.1752929,29.5024414 L17.2268879,29.5024414 C17.7335611,29.5024414 18.1435546,29.0924479 18.1435546,28.5857747 C18.1435546,28.0791015 17.7335611,27.669108 17.2268879,27.669108 L13.1752929,27.669108 C12.6686197,27.669108 12.2586262,28.0791015 12.2586262,28.5857747 C12.2586262,29.0924479 12.6686199,29.5024414 13.1752929,29.5024414 Z" id="Shape"></path>
                        <path d="M20.1398113,29.5024414 L25.5664062,29.5024414 C26.0730794,29.5024414 26.4830729,29.0924479 26.4830729,28.5857747 C26.4830729,28.0791015 26.0730794,27.669108 25.5664062,27.669108 L20.1398113,27.669108 C19.6331381,27.669108 19.2231446,28.0791015 19.2231446,28.5857747 C19.2231446,29.0924479 19.6331381,29.5024414 20.1398113,29.5024414 Z" id="Shape"></path>
                    </g>
                </g>
            </g>
        </g>
    </g>
</svg>