<?xml version="1.0" encoding="UTF-8"?>
<svg width="38px" height="37px" viewBox="0 0 38 37" version="1.1" xmlns="http://www.w3.org/2000/svg" xmlns:xlink="http://www.w3.org/1999/xlink">
    <!-- Generator: Sketch 50 (54983) - http://www.bohemiancoding.com/sketch -->
    <title>return</title>
    <desc>Created with Sketch.</desc>
    <defs></defs>
    <g id="Symbols" stroke="none" stroke-width="1" fill="none" fill-rule="evenodd">
        <g id="Group-3" transform="translate(-941.000000, -76.000000)" fill="#1D1D1B">
            <g id="return" transform="translate(939.000000, 76.000000)">
                <g id="Group-Copy" transform="translate(22.000000, 27.500000) scale(-1, -1) translate(-22.000000, -27.500000) translate(2.000000, 18.000000)">
                    <path d="M39.0840381,0.502560931 C38.0172842,9.42565099 30.4226031,16.343307 21.2122169,16.343307 C13.1990637,16.343307 6.40887349,11.10718 4.07650113,3.86978086 C3.51533012,2.12845573 6.20743564,1.78276042 6.75090036,3.35208633 C8.82529348,9.34216951 14.5164629,13.643307 21.2122169,13.643307 C28.9032602,13.643307 35.2688698,7.96845078 36.3502565,0.577527475 C36.4569623,-0.151771595 39.1686729,-0.205384665 39.0840381,0.502560931 Z" id="Oval-4" fill-rule="nonzero" transform="translate(21.542989, 8.171654) scale(1, -1) translate(-21.542989, -8.171654) "></path>
                    <path d="M6.22631104,12.2289358 L8.72631104,15.5622692 C9.05768189,16.004097 8.96813884,16.6308983 8.52631104,16.9622692 C8.35321487,17.0920913 8.14268125,17.1622692 7.92631104,17.1622692 L2.92631104,17.1622692 C2.37402629,17.1622692 1.92631104,16.7145539 1.92631104,16.1622692 C1.92631104,15.945899 1.99648891,15.7353653 2.12631104,15.5622692 L4.62631104,12.2289358 C4.95768189,11.787108 5.58448324,11.697565 6.02631104,12.0289358 C6.1021167,12.0857901 6.16945679,12.1531302 6.22631104,12.2289358 Z" id="Triangle" transform="translate(5.426311, 14.162269) scale(1, -1) rotate(-12.000000) translate(-5.426311, -14.162269) "></path>
                </g>
                <g id="Group-Copy">
                    <path d="M39.0840381,0.502560931 C38.0172842,9.42565099 30.4226031,16.343307 21.2122169,16.343307 C13.1990637,16.343307 6.40887349,11.10718 4.07650113,3.86978086 C3.51533012,2.12845573 6.20743564,1.78276042 6.75090036,3.35208633 C8.82529348,9.34216951 14.5164629,13.643307 21.2122169,13.643307 C28.9032602,13.643307 35.2688698,7.96845078 36.3502565,0.577527475 C36.4569623,-0.151771595 39.1686729,-0.205384665 39.0840381,0.502560931 Z" id="Oval-4" fill-rule="nonzero" transform="translate(21.542989, 8.171654) scale(1, -1) translate(-21.542989, -8.171654) "></path>
                    <path d="M6.22631104,12.2289358 L8.72631104,15.5622692 C9.05768189,16.004097 8.96813884,16.6308983 8.52631104,16.9622692 C8.35321487,17.0920913 8.14268125,17.1622692 7.92631104,17.1622692 L2.92631104,17.1622692 C2.37402629,17.1622692 1.92631104,16.7145539 1.92631104,16.1622692 C1.92631104,15.945899 1.99648891,15.7353653 2.12631104,15.5622692 L4.62631104,12.2289358 C4.95768189,11.787108 5.58448324,11.697565 6.02631104,12.0289358 C6.1021167,12.0857901 6.16945679,12.1531302 6.22631104,12.2289358 Z" id="Triangle" transform="translate(5.426311, 14.162269) scale(1, -1) rotate(-12.000000) translate(-5.426311, -14.162269) "></path>
                </g>
            </g>
        </g>
    </g>
</svg>