<?xml version="1.0" encoding="utf-8"?>
<!-- Generator: Adobe Illustrator 16.0.0, SVG Export Plug-In . SVG Version: 6.00 Build 0)  -->
<!DOCTYPE svg PUBLIC "-//W3C//DTD SVG 1.1//EN" "http://www.w3.org/Graphics/SVG/1.1/DTD/svg11.dtd">
<svg version="1.1" id="Слой_1" xmlns="http://www.w3.org/2000/svg" xmlns:xlink="http://www.w3.org/1999/xlink" x="0px" y="0px"
	 width="19px" height="19px" viewBox="0 0 19 19" enable-background="new 0 0 19 19" xml:space="preserve">
<g>
	<path fill="#231F20" d="M8.277,16.237C3.713,16.237,0,12.596,0,8.119C0,3.642,3.713,0,8.277,0c4.564,0,8.277,3.642,8.277,8.119
		C16.555,12.596,12.842,16.237,8.277,16.237z M8.277,2.069c-3.423,0-6.208,2.714-6.208,6.05c0,3.335,2.785,6.05,6.208,6.05
		c3.424,0,6.208-2.715,6.208-6.05C14.485,4.784,11.701,2.069,8.277,2.069z"/>
	<path fill="#231F20" d="M15.04,13.576l3.657,3.658c0.403,0.404,0.403,1.059,0,1.463l0,0c-0.404,0.403-1.059,0.403-1.463,0
		l-3.658-3.657c-0.404-0.405-0.404-1.061,0-1.464l0,0C13.979,13.172,14.635,13.172,15.04,13.576z"/>
</g>
</svg>
