<svg xmlns="http://www.w3.org/2000/svg" width="20" height="12" viewBox="0 0 20 12">
    <path fill="#A7A7AF" fill-rule="evenodd" d="M19.91 1.15c.153.428-.349 1.413-1.507 2.953-.161.214-.379.498-.653.853-.522.67-.824 1.109-.904 1.316-.114.275-.067.546.14.814.114.14.385.415.814.823h.01l.04.04c.944.878 1.584 1.617 1.919 2.22.02.034.041.075.065.126.023.05.047.139.07.266a.775.775 0 0 1-.005.341c-.027.1-.11.193-.25.276-.142.084-.34.126-.594.126l-2.57.04c-.161.034-.349.017-.563-.05a2.444 2.444 0 0 1-.522-.221l-.201-.12c-.201-.141-.436-.355-.703-.643a17.906 17.906 0 0 1-.688-.779 3.328 3.328 0 0 0-.613-.582c-.218-.158-.407-.21-.568-.156a.657.657 0 0 0-.08.035 1.277 1.277 0 0 0-.387.442 2.06 2.06 0 0 0-.17.522c-.05.231-.072.49-.066.779 0 .1-.011.192-.035.276a.678.678 0 0 1-.075.186l-.04.05c-.12.127-.298.2-.533.221h-1.155a4.565 4.565 0 0 1-1.466-.166 5.605 5.605 0 0 1-1.32-.532 12.045 12.045 0 0 1-1.035-.663 5.968 5.968 0 0 1-.708-.577l-.252-.241a6.613 6.613 0 0 1-.276-.302 22.199 22.199 0 0 1-.718-.914c-.361-.475-.716-.98-1.064-1.516a30.756 30.756 0 0 1-1.23-2.12A33.154 33.154 0 0 1 .704 1.541a.801.801 0 0 1-.06-.27c0-.074.01-.128.03-.161l.04-.06c.1-.128.292-.192.573-.192L4.04.838c.08.014.157.036.231.066.074.03.127.058.16.085l.05.03c.108.074.188.181.242.322.134.334.288.68.462 1.04.174.357.311.63.412.818l.16.29c.195.403.382.75.563 1.046.18.294.343.523.487.688.144.164.283.292.417.386.134.094.248.14.341.14a.75.75 0 0 0 .272-.05.172.172 0 0 0 .05-.05c.02-.026.06-.1.12-.22.06-.121.106-.278.136-.473.03-.194.062-.465.095-.813a7.804 7.804 0 0 0 0-1.256 4.668 4.668 0 0 0-.09-.733 1.923 1.923 0 0 0-.14-.462l-.061-.12c-.167-.228-.452-.372-.854-.432-.087-.014-.07-.094.05-.241.114-.128.242-.228.382-.302.355-.174 1.155-.254 2.4-.24.55.006 1.002.05 1.357.13.133.033.246.079.336.135.09.057.16.138.206.241.047.104.082.211.105.322.024.11.036.263.036.457s-.004.378-.01.552l-.026.708c-.01.298-.015.575-.015.829 0 .074-.003.214-.01.422a8.365 8.365 0 0 0-.005.482c.004.114.015.25.035.407.02.157.059.288.116.391a.668.668 0 0 0 .226.246c.053.014.11.027.17.04.06.014.148-.023.262-.11.114-.087.24-.202.381-.346.141-.144.315-.369.523-.673.207-.305.435-.665.683-1.08.401-.696.76-1.45 1.074-2.26a.688.688 0 0 1 .1-.176.449.449 0 0 1 .111-.105l.04-.03.05-.025a.807.807 0 0 1 .331-.035l2.894-.02c.26-.034.475-.026.643.025.167.05.27.105.31.165l.061.1z"/>
</svg>
