<?xml version="1.0" encoding="UTF-8"?>
<svg width="27px" height="17px" viewBox="0 0 27 17" version="1.1" xmlns="http://www.w3.org/2000/svg" xmlns:xlink="http://www.w3.org/1999/xlink">
    <!-- Generator: Sketch 50.2 (55047) - http://www.bohemiancoding.com/sketch -->
    <title>master</title>
    <desc>Created with Sketch.</desc>
    <defs></defs>
    <g id="Design" stroke="none" stroke-width="1" fill="none" fill-rule="evenodd">
        <g id="catalog-1400" transform="translate(-1157.000000, -3328.000000)">
            <g id="footer" transform="translate(0.000000, 3199.000000)">
                <g id="pay" transform="translate(1112.000000, 127.000000)">
                    <g id="master" transform="translate(45.000000, 2.000000)">
                        <path d="M26.1904762,8.0952381 C26.1904762,12.5675899 22.5656586,16.1904762 18.0952381,16.1904762 C13.6248176,16.1904762 10,12.5675899 10,8.0952381 C10,3.62288626 13.6191803,0 18.0896007,0 C22.5600212,0 26.1904762,3.62288626 26.1904762,8.0952381 L26.1904762,8.0952381 L26.1904762,8.0952381 Z" id="path2997" fill="#F79F1A"></path>
                        <path d="M16.1904762,8.0952381 C16.1904762,12.5675899 12.5656586,16.1904762 8.0952381,16.1904762 C3.62481762,16.1904762 0,12.5675899 0,8.0952381 C0,3.62288626 3.62481762,0 8.0952381,0 C12.5656586,0 16.1904762,3.62288626 16.1904762,8.0952381 L16.1904762,8.0952381 L16.1904762,8.0952381 Z" id="path2995" fill="#EA001B"></path>
                        <path d="M13.3333333,2 C11.3030303,3.43697726 10,5.67713193 10,8.19047619 C10,10.7038205 11.3030303,12.9439751 13.3333333,14.3809524 C15.3636364,12.9439751 16.6666667,10.7038205 16.6666667,8.19047619 C16.6666667,5.67713193 15.3636364,3.44244105 13.3333333,2 L13.3333333,2 Z" id="path2999" fill="#FF5F01"></path>
                    </g>
                </g>
            </g>
        </g>
    </g>
</svg>