<?xml version="1.0" encoding="UTF-8"?>
<svg width="32px" height="10px" viewBox="0 0 32 10" version="1.1" xmlns="http://www.w3.org/2000/svg" xmlns:xlink="http://www.w3.org/1999/xlink">
    <!-- Generator: Sketch 50.2 (55047) - http://www.bohemiancoding.com/sketch -->
    <title>mir</title>
    <desc>Created with Sketch.</desc>
    <defs>
        <linearGradient x1="-0.18041958%" y1="50%" x2="100%" y2="50%" id="linearGradient-1">
            <stop stop-color="#00B4E6" offset="0%"></stop>
            <stop stop-color="#088CCB" offset="100%"></stop>
        </linearGradient>
    </defs>
    <g id="Design" stroke="none" stroke-width="1" fill="none" fill-rule="evenodd">
        <g id="catalog-1400" transform="translate(-1238.000000, -3331.000000)">
            <g id="footer" transform="translate(0.000000, 3199.000000)">
                <g id="pay" transform="translate(1112.000000, 127.000000)">
                    <g id="mir" transform="translate(126.000000, 5.000000)">
                        <path d="M28.0734694,0 L22,0 C22.3265306,2.0244898 24.2857143,3.91836735 26.4408163,3.91836735 L31.2734694,3.91836735 C31.3387755,3.72244898 31.3387755,3.46122449 31.3387755,3.26530612 C31.3387755,1.43673469 29.9020408,0 28.0734694,0 Z" id="path10" fill="url(#linearGradient-1)"></path>
                        <path d="M23,4 L23,8.89795918 L25.9387755,8.89795918 L25.9387755,6.28571429 L28.5510204,6.28571429 C29.9877551,6.28571429 31.2285714,5.30612245 31.6204082,4 L23,4 Z" id="path12" fill="#4DB45F"></path>
                        <path d="M12,0 L12,9.14285714 L14.6122449,9.14285714 C14.6122449,9.14285714 15.2653061,9.14285714 15.5918367,8.48979592 C17.355102,4.96326531 17.877551,3.91836735 17.877551,3.91836735 L18.2040816,3.91836735 L18.2040816,9.14285714 L21.1428571,9.14285714 L21.1428571,0 L18.5306122,0 C18.5306122,0 17.877551,0.0653061224 17.5510204,0.653061224 L15.2653061,5.2244898 L14.9387755,5.2244898 L14.9387755,0 L12,0 Z" id="path14" fill="#4DB45F"></path>
                        <path d="M0,9.14285714 L0,0 L2.93877551,0 C2.93877551,0 3.7877551,0 4.24489796,1.30612245 C5.42040816,4.76734694 5.55102041,5.2244898 5.55102041,5.2244898 C5.55102041,5.2244898 5.8122449,4.3755102 6.85714286,1.30612245 C7.31428571,0 8.16326531,0 8.16326531,0 L11.1020408,0 L11.1020408,9.14285714 L8.16326531,9.14285714 L8.16326531,4.24489796 L7.83673469,4.24489796 L6.20408163,9.14285714 L4.89795918,9.14285714 L3.26530612,4.24489796 L2.93877551,4.24489796 L2.93877551,9.14285714 L0,9.14285714 Z" id="path16" fill="#4DB45F"></path>
                    </g>
                </g>
            </g>
        </g>
    </g>
</svg>