<?xml version="1.0" encoding="UTF-8"?>
<svg width="20px" height="20px" viewBox="0 0 20 20" version="1.1" xmlns="http://www.w3.org/2000/svg" xmlns:xlink="http://www.w3.org/1999/xlink">
    <!-- Generator: Sketch 50.2 (55047) - http://www.bohemiancoding.com/sketch -->
    <title>sber</title>
    <desc>Created with Sketch.</desc>
    <defs></defs>
    <g id="Design" stroke="none" stroke-width="1" fill="none" fill-rule="evenodd">
        <g id="catalog-1400" transform="translate(-1202.000000, -3326.000000)" fill="#1A9F29">
            <g id="footer" transform="translate(0.000000, 3199.000000)">
                <g id="pay" transform="translate(1112.000000, 127.000000)">
                    <g id="sber" transform="translate(90.000000, 0.000000)">
                        <path d="M18.0245833,3.87208333 C17.8216667,3.57416667 17.6066667,3.27875 17.3825,3 L5.85583333,9.63 L0.262083333,6.41541667 C0.151666667,6.77083333 0.06875,7.13125 0,7.50791667 L5.85625,10.8770833 L18.0245833,3.87208333 Z" id="Shape"></path>
                        <path d="M6.02625,12.3133333 L0.0283333333,8.86041667 C0.00625,9.07791667 0,9.3 0,9.51958333 C0,14.9979167 4.43375,19.43375 9.91666667,19.43375 C15.395,19.43375 19.8295833,14.9979167 19.8295833,9.51958333 C19.8295833,7.8925 19.43875,6.35375 18.74375,5 L6.02625,12.3133333 Z" id="Shape"></path>
                        <path d="M16.9820833,1.74666667 C16.7041667,1.47583333 16.4179167,1.23125 16.11125,1 L6.21416667,6.68708333 L1.48583333,3.97458333 C1.30875,4.2825 1.15375,4.61166667 1,4.94333333 L6.21416667,7.93791667 L16.9820833,1.74666667 Z" id="Shape"></path>
                        <path d="M15.03125,0.577083333 C14.6620833,0.361666667 14.2733333,0.167083333 13.8758333,0 L6.13916667,4.44625 L2.69291667,2.46541667 C2.44958333,2.73875 2.21333333,3.01708333 2,3.315 L6.13958333,5.69791667 L15.03125,0.577083333 Z" id="Shape"></path>
                    </g>
                </g>
            </g>
        </g>
    </g>
</svg>