<?xml version="1.0" encoding="UTF-8"?>
<svg width="33px" height="11px" viewBox="0 0 33 11" version="1.1" xmlns="http://www.w3.org/2000/svg" xmlns:xlink="http://www.w3.org/1999/xlink">
    <!-- Generator: Sketch 50.2 (55047) - http://www.bohemiancoding.com/sketch -->
    <title>visa@2x</title>
    <desc>Created with Sketch.</desc>
    <defs></defs>
    <g id="Design" stroke="none" stroke-width="1" fill="none" fill-rule="evenodd">
        <g id="catalog-1400" transform="translate(-1112.000000, -3331.000000)">
            <g id="footer" transform="translate(0.000000, 3199.000000)">
                <g id="pay" transform="translate(1112.000000, 127.000000)">
                    <g id="visa" transform="translate(0.000000, 5.000000)">
                        <path d="M13.1142857,0.178770563 L11.4890043,10.1672035 L14.089316,10.1672035 L15.7148052,0.178770563 L13.1142857,0.178770563 L13.1142857,0.178770563 Z M9.30116017,0.178770563 L6.82192208,7.04872727 L6.52865801,5.56938528 L6.5288658,5.56987013 L6.46424242,5.23830303 C6.16419048,4.59165368 5.46926407,3.36263203 4.15705628,2.31376623 C3.76910823,2.00374026 3.37804329,1.73915152 3,1.51314286 L5.25322944,10.1672035 L7.96256277,10.1672035 L12.0999134,0.178770563 L9.30116017,0.178770563 L9.30116017,0.178770563 Z M19.4498009,2.95175758 C19.4498009,1.82247619 21.982303,1.96758442 23.0950996,2.58077922 L23.4661472,0.435532468 C23.4661472,0.435532468 22.3209351,0 21.1272381,0 C19.83671,0 16.7722597,0.564363636 16.7722597,3.3065974 C16.7722597,5.88737662 20.3690043,5.91944589 20.3690043,7.27438961 C20.3690043,8.62933333 17.1430996,8.38718615 16.0785108,7.53246753 L15.6916017,9.77475325 C15.6916017,9.77475325 16.8526753,10.3391169 18.6271515,10.3391169 C20.4014199,10.3391169 23.0788918,9.41991342 23.0788918,6.91954978 C23.0788918,4.32263203 19.4498009,4.0807619 19.4498009,2.95175758 L19.4498009,2.95175758 Z M30.0610563,0.178770563 L27.9703203,0.178770563 C27.0049177,0.178770563 26.7698355,0.923151515 26.7698355,0.923151515 L22.8918788,10.1672035 L25.6022511,10.1672035 L26.1444502,8.68363636 L29.4502857,8.68363636 L29.7552554,10.1672035 L32.1429264,10.1672035 L30.0610563,0.178770563 L30.0610563,0.178770563 Z M26.8938182,6.63390476 L28.2602597,2.896 L29.0289524,6.63390476 L26.8938182,6.63390476 L26.8938182,6.63390476 Z" id="Shape" fill="#1575CB"></path>
                        <path d="M5.48038095,0.901471861 C5.48038095,0.901471861 5.37274459,0 4.22365368,0 L0.0489004329,0 L0,0.169419913 C0,0.169419913 2.00671861,0.578493506 3.93191342,2.11109957 C5.77170563,3.5758961 6.37187879,5.4018355 6.37187879,5.4018355 L5.48038095,0.901471861 L5.48038095,0.901471861 Z" id="Shape" fill="#F6AC1D"></path>
                    </g>
                </g>
            </g>
        </g>
    </g>
</svg>