<?xml version="1.0" encoding="utf-8"?>
<!-- Generator: Adobe Illustrator 16.0.0, SVG Export Plug-In . SVG Version: 6.00 Build 0)  -->
<!DOCTYPE svg PUBLIC "-//W3C//DTD SVG 1.1//EN" "http://www.w3.org/Graphics/SVG/1.1/DTD/svg11.dtd">
<svg version="1.1" id="Слой_1" xmlns="http://www.w3.org/2000/svg" xmlns:xlink="http://www.w3.org/1999/xlink" x="0px" y="0px"
	 width="205px" height="31px" viewBox="0 0 205 31" enable-background="new 0 0 205 31" xml:space="preserve">
<g>
	<g>
		<path d="M0,6.32V0.922h23.923V6.32h-8.751v23.801h-6.42V6.32H0z"/>
		<path d="M49.931,0.922V6.32H34.514v6.257h14.149v4.99H34.514v7.156h15.745v5.398H28.094V0.922H49.931z"/>
		<path d="M54.307,9.571c0.654-1.867,1.595-3.497,2.822-4.887c1.227-1.391,2.733-2.48,4.519-3.271
			c1.786-0.791,3.796-1.186,6.032-1.186c2.263,0,4.28,0.396,6.052,1.186c1.772,0.791,3.272,1.881,4.499,3.271
			c1.227,1.39,2.167,3.02,2.822,4.887c0.654,1.868,0.981,3.892,0.981,6.074c0,2.125-0.327,4.109-0.981,5.949
			s-1.595,3.441-2.822,4.805c-1.227,1.363-2.727,2.434-4.499,3.211c-1.772,0.775-3.79,1.164-6.052,1.164
			c-2.235,0-4.246-0.389-6.032-1.164c-1.786-0.777-3.292-1.848-4.519-3.211c-1.227-1.363-2.167-2.965-2.822-4.805
			s-0.981-3.824-0.981-5.949C53.325,13.463,53.652,11.438,54.307,9.571z M60.175,19.223c0.287,1.158,0.743,2.201,1.37,3.127
			c0.627,0.928,1.445,1.672,2.454,2.229c1.008,0.561,2.235,0.84,3.68,0.84s2.672-0.279,3.681-0.84
			c1.008-0.557,1.826-1.301,2.454-2.229c0.627-0.926,1.084-1.969,1.37-3.127c0.286-1.16,0.429-2.352,0.429-3.578
			c0-1.282-0.143-2.522-0.429-3.722c-0.286-1.199-0.743-2.27-1.37-3.21c-0.627-0.941-1.445-1.69-2.454-2.25
			c-1.009-0.559-2.236-0.838-3.681-0.838s-2.672,0.28-3.68,0.838c-1.009,0.559-1.827,1.309-2.454,2.25
			c-0.627,0.94-1.083,2.011-1.37,3.21c-0.286,1.2-0.429,2.44-0.429,3.722C59.746,16.871,59.889,18.063,60.175,19.223z"/>
		<path d="M102.153,0.922c1.308,0,2.487,0.211,3.537,0.634c1.049,0.423,1.948,1.002,2.698,1.738c0.75,0.736,1.322,1.588,1.718,2.556
			c0.395,0.968,0.593,2.011,0.593,3.128c0,1.717-0.361,3.204-1.084,4.457c-0.722,1.254-1.901,2.209-3.536,2.864v0.08
			c0.79,0.219,1.444,0.553,1.963,1.002c0.517,0.451,0.94,0.982,1.267,1.596c0.328,0.613,0.565,1.287,0.716,2.023
			c0.149,0.736,0.252,1.473,0.307,2.209c0.027,0.463,0.055,1.01,0.082,1.637s0.075,1.268,0.144,1.92
			c0.067,0.656,0.177,1.275,0.327,1.861c0.149,0.588,0.374,1.084,0.675,1.494h-6.421c-0.354-0.928-0.572-2.031-0.654-3.313
			c-0.081-1.281-0.204-2.508-0.367-3.682c-0.219-1.525-0.683-2.645-1.391-3.354c-0.709-0.709-1.868-1.063-3.477-1.063h-6.42v11.41
			h-6.421V0.922H102.153z M99.863,14.13c1.472,0,2.576-0.327,3.312-0.981s1.104-1.717,1.104-3.189c0-1.417-0.368-2.447-1.104-3.088
			c-0.736-0.64-1.84-0.961-3.312-0.961h-7.034v8.22H99.863z"/>
		<path d="M137.771,0.922V6.32h-15.417v6.257h14.149v4.99h-14.149v7.156h15.744v5.398h-22.164V0.922H137.771z"/>
		<path d="M151.47,0.922L158.299,21h0.082l6.461-20.078h9.038v29.199h-6.012V9.428h-0.081l-7.157,20.693h-4.948l-7.156-20.489
			h-0.082v20.489h-6.011V0.922H151.47z"/>
		<path d="M194.081,0.922L205,30.121h-6.666l-2.208-6.502h-10.919l-2.29,6.502h-6.461l11.041-29.199H194.081z M194.449,18.834
			l-3.681-10.715h-0.082l-3.803,10.715H194.449z"/>
	</g>
</g>
</svg>
