<?xml version="1.0" encoding="UTF-8"?>
<svg width="34px" height="46px" viewBox="0 0 34 46" version="1.1" xmlns="http://www.w3.org/2000/svg" xmlns:xlink="http://www.w3.org/1999/xlink">
    <!-- Generator: sketchtool 50 (54983) - http://www.bohemiancoding.com/sketch -->
    <title>6AC34BB8-E234-4395-B2C2-3D31126E7F65</title>
    <desc>Created with sketchtool.</desc>
    <defs></defs>
    <g id="Design" stroke="none" stroke-width="1" fill="none" fill-rule="evenodd">
        <g id="Stores-1400" transform="translate(-470.000000, -402.000000)" fill="#F76239" fill-rule="nonzero">
            <g id="pin_big" transform="translate(470.000000, 402.000000)">
                <path d="M0,17 C1.39904629e-07,7.61115935 7.61115935,2.5331974e-07 17,2.5331974e-07 C26.3888406,2.53319741e-07 33.9999999,7.61115935 34,17 C34,28.3333333 17,45.3333333 17,45.3333333 C17,45.3333333 0,28.3333333 0,17 Z M9.91666667,17 C9.91666667,20.912017 13.087983,24.0833333 17,24.0833333 C20.912017,24.0833333 24.0833333,20.912017 24.0833333,17 C24.0833333,13.087983 20.912017,9.91666667 17,9.91666667 C13.087983,9.91666667 9.91666667,13.087983 9.91666667,17 Z" id="Shape"></path>
            </g>
        </g>
    </g>
</svg>