<svg xmlns="http://www.w3.org/2000/svg" width="22" height="22" viewBox="0 0 22 22">
    <path fill="#231F20" fill-rule="nonzero" d="M20.429 6.286h-3.143v-.221C17.286 2.7 14.585 0 11.22 0h-.393C7.464 0 4.714 2.7 4.714 6.065v.22H1.571L0 22h22L20.429 6.286zM6.286 6.065c0-2.49 2.052-4.494 4.542-4.494h.393a4.483 4.483 0 0 1 4.493 4.494v.22H6.286v-.22zM1.758 20.429L2.981 7.857h1.733V9.64a1.57 1.57 0 0 0 .786 2.932 1.57 1.57 0 0 0 .786-2.932V7.857h9.428V9.64a1.57 1.57 0 0 0 .786 2.932 1.57 1.57 0 0 0 .786-2.932V7.857h1.738l1.223 12.572H1.758z"/>
</svg>
