<?xml version="1.0" encoding="UTF-8"?>
<svg width="42px" height="41px" viewBox="0 0 42 41" version="1.1" xmlns="http://www.w3.org/2000/svg" xmlns:xlink="http://www.w3.org/1999/xlink">
    <!-- Generator: Sketch 50.2 (55047) - http://www.bohemiancoding.com/sketch -->
    <title>map</title>
    <desc>Created with Sketch.</desc>
    <defs></defs>
    <g id="Design" stroke="none" stroke-width="1" fill="none" fill-rule="evenodd">
        <g id="catalog-1400" transform="translate(-528.000000, -2960.000000)" fill="#1D1D1B" fill-rule="nonzero">
            <g id="Group-3" transform="translate(0.000000, 2889.000000)">
                <g id="Group-11-Copy" transform="translate(510.000000, 54.000000)">
                    <g id="map" transform="translate(18.000000, 17.000000)">
                        <path d="M41.8287811,34.2078858 C41.8689422,34.1322632 41.9025878,34.0582427 41.927368,33.9763184 C41.9510802,33.8985596 41.9635771,33.8213349 41.9725493,33.73909 C41.9823759,33.6495819 41.9839782,33.5632782 41.975006,33.4720612 C41.971054,33.4312592 41.9839782,33.392807 41.9760742,33.3516846 L38.7717285,16.7583008 C38.760086,16.6987 38.7246246,16.6525574 38.705719,16.5965882 C38.6873475,16.5413666 38.6885222,16.483902 38.6623534,16.4301758 C38.6491088,16.4030457 38.6244353,16.387024 38.6095885,16.3612823 C38.5619505,16.277542 38.5024565,16.2086487 38.4389037,16.1384736 C38.387741,16.0821839 38.3410643,16.025467 38.2817839,15.979538 C38.2101134,15.9235688 38.1312866,15.8852235 38.0492553,15.8452759 C37.9779052,15.8104553 37.9107208,15.7751008 37.8344573,15.7536316 C37.7576598,15.7321624 37.6792602,15.7275695 37.5979767,15.7206268 C37.5037689,15.7119751 37.4129791,15.7065277 37.3177032,15.7189177 C37.2889708,15.7226561 37.2625885,15.7128295 37.2336424,15.7183836 C37.1760711,15.7294921 37.1318511,15.7645262 37.0776977,15.7825773 C37.0211944,15.8014829 36.9621277,15.8004149 36.9072265,15.8277586 L32.090454,18.1823119 C32.8596039,16.648178 33.4875487,14.7422331 33.4875487,12.5721435 C33.4875487,5.70971677 27.9248046,0.123046875 21.0751952,0.087158225 C21.0581054,0.087158225 21.0444336,0.087158225 21.0307617,0.087158225 C21.0170898,0.087158225 21.0034179,0.087158225 20.9863281,0.087158225 C14.1350097,0.123046875 8.57226563,5.70971677 8.57226563,12.5721435 C8.57226563,14.721939 9.18952948,16.6128235 9.94992058,18.1405486 L3.94091793,21.0777588 C3.91592408,21.090042 3.901184,21.1128998 3.8773651,21.1264648 C3.7868957,21.177307 3.7107392,21.2412872 3.6350097,21.31221 C3.58384705,21.3601684 3.53279115,21.4041747 3.4903869,21.4588622 C3.4362335,21.5288237 3.3978882,21.6064758 3.35836778,21.6877593 C3.32044965,21.7650909 3.28530878,21.8394316 3.26309183,21.922531 C3.2549741,21.953186 3.23435945,21.9766844 3.2282712,22.0083006 L0.023925475,38.6016844 C0.015914675,38.6434477 0.0289457,38.6825407 0.024993675,38.7240905 C0.016021425,38.8133849 0.017730475,38.8995819 0.027450325,38.9902648 C0.037170175,39.0787047 0.05340545,39.1610564 0.080322025,39.2443693 C0.0932463,39.2851713 0.088760175,39.3271482 0.105956725,39.3673094 C0.12806675,39.4187925 0.1639554,39.4583129 0.191512825,39.5054168 C0.215865825,39.5470733 0.23744175,39.5874481 0.266174125,39.6261138 C0.348098625,39.7366637 0.442519875,39.8326873 0.551147275,39.9105528 C0.565139575,39.9206999 0.574966175,39.9345854 0.589385825,39.9440916 C0.719482225,40.0299681 0.8650663,40.0845487 1.01663188,40.1197965 C1.03350818,40.1237485 1.04589818,40.1356046 1.06298815,40.1389158 C1.14672845,40.1548306 1.22886645,40.1622007 1.30929558,40.1624142 C1.31036378,40.1624142 1.3114318,40.1628414 1.3125,40.1628414 C1.31271368,40.1628414 1.31282043,40.1627347 1.3130341,40.1627347 C1.31346128,40.1627347 1.3137817,40.1628414 1.31420905,40.1628414 C1.48265075,40.1628414 1.64318858,40.1244961 1.7943268,40.0642545 C1.80618288,40.0596616 1.81857305,40.0619046 1.8303222,40.0568845 L13.609497,35.0086515 L28,40.0876465 C28.0099335,40.0911714 28.0198669,40.0895691 28.0298004,40.0927735 C28.160965,40.1358184 28.2973633,40.1628418 28.4375,40.1628418 C28.5985718,40.1628418 28.7530213,40.1244965 28.9007416,40.0680999 C28.918686,40.0613708 28.9374848,40.0644683 28.9553224,40.0568847 L41.2053224,34.8068847 C41.2447359,34.7900084 41.2699434,34.7568968 41.3067933,34.7367095 C41.3849793,34.6939848 41.4535524,34.645706 41.5204164,34.589096 C41.5853578,34.5341948 41.6437837,34.4789734 41.6961213,34.4137115 C41.7483521,34.348877 41.7895812,34.2814789 41.8287811,34.2078858 Z M5.681305,23.1485138 L11.3162537,20.394165 L13.7010346,23.6376038 L12.7959137,32.5003968 L3.07040405,36.6685028 L5.681305,23.1485138 Z M14.54805,32.5564727 L15.244568,25.7368774 L19.9506837,32.1374511 C20.1984865,32.474121 20.6359865,32.6723633 21.0529786,32.6723633 C21.4699707,32.6723633 21.8630372,32.4732667 22.11084,32.1374511 L26.2921908,26.4493103 L27.3782504,37.0847473 L14.54805,32.5564727 Z M29.1397859,37.1208497 L27.8356171,24.3496094 L29.1734314,22.5296479 L36.5196074,18.9386444 L39.1983337,32.8101501 L29.1397859,37.1208497 Z M21.0307617,2.71215822 C26.4550781,2.72412105 30.8625488,7.14270025 30.8625488,12.5721435 C30.8625488,15.1347656 29.7209472,17.2966307 28.7536622,18.6697997 C28.7502442,18.6740722 28.7468261,18.6774901 28.7434082,18.6817626 L21.0307617,29.1740722 L13.3454589,18.7210693 C13.3403321,18.7150878 13.3369142,18.7091065 13.3317872,18.703125 C12.3576661,17.3308105 11.1972656,15.1535645 11.1972656,12.5721435 C11.1972656,7.14270025 15.6064454,2.72412105 21.0307617,2.71215822 Z" id="Shape"></path>
                        <path d="M21.0529784,18.107544 C24.1000975,18.107544 26.5798339,15.6243897 26.5798339,12.5721437 C26.5798339,9.51989763 24.1000975,7.03674335 21.0529784,7.03674335 C18.0041503,7.03674335 15.524414,9.51989763 15.524414,12.5721437 C15.524414,15.6243897 18.0041503,18.107544 21.0529784,18.107544 Z M21.0529784,8.78674318 C23.1362304,8.78674318 24.8298339,10.4846191 24.8298339,12.5721435 C24.8298339,14.6596679 23.1362304,16.3575438 21.0529784,16.3575438 C18.9697265,16.3575438 17.274414,14.6596679 17.274414,12.5721435 C17.274414,10.4846191 18.9697266,8.78674318 21.0529784,8.78674318 Z" id="Shape"></path>
                    </g>
                </g>
            </g>
        </g>
    </g>
</svg>