<?xml version="1.0" encoding="UTF-8"?>
<svg width="13px" height="17px" viewBox="0 0 13 17" version="1.1" xmlns="http://www.w3.org/2000/svg" xmlns:xlink="http://www.w3.org/1999/xlink">
    <!-- Generator: Sketch 50 (54983) - http://www.bohemiancoding.com/sketch -->
    <title>if_25_2135797</title>
    <desc>Created with Sketch.</desc>
    <defs></defs>
    <g id="Design" stroke="none" stroke-width="1" fill="none" fill-rule="evenodd">
        <g id="cart" transform="translate(-66.000000, -552.000000)" fill="#000000" fill-rule="nonzero">
            <g id="Group-2-Copy" transform="translate(0.000000, 371.000000)">
                <g id="if_25_2135797" transform="translate(66.000000, 181.000000)">
                    <path d="M1,3 L1.89631579,14.9018421 C1.98184211,16.0136842 2.90894737,16.8894737 3.97289474,16.8894737 L9.42263158,16.8894737 C10.4865789,16.8894737 11.4136842,16.0136842 11.4992105,14.9018421 L12.3989474,3 L1,3 Z M4.445,15.3431579 C4.45526316,15.5860526 4.27052632,15.7776316 4.03447368,15.7776316 C3.79842105,15.7776316 3.6,15.5826316 3.58631579,15.3431579 L3.08684211,5.19631579 C3.06973684,4.86789474 3.28184211,4.60105263 3.55894737,4.60105263 C3.83605263,4.60105263 4.06868421,4.86789474 4.08236842,5.19631579 L4.445,15.3431579 Z M7.12710526,15.3431579 C7.12710526,15.5860526 6.93210526,15.7776316 6.69947368,15.7776316 C6.46684211,15.7776316 6.27184211,15.5826316 6.27184211,15.3431579 L6.20342105,5.19631579 C6.2,4.86789474 6.42236842,4.60105263 6.69947368,4.60105263 C6.97657895,4.60105263 7.19894737,4.86789474 7.19552632,5.19631579 L7.12710526,15.3431579 Z M9.80921053,15.3431579 C9.79894737,15.5860526 9.59710526,15.7776316 9.36105263,15.7776316 C9.125,15.7776316 8.94368421,15.5826316 8.95052632,15.3431579 L9.31315789,5.19631579 C9.32342105,4.86789474 9.55947368,4.60105263 9.83657895,4.60105263 C10.1136842,4.60105263 10.3257895,4.86789474 10.3086842,5.19631579 L9.80921053,15.3431579 Z" id="Shape"></path>
                    <path d="M12.9580032,2.31368421 L0.00589798179,2.31368421 C-0.0556809656,1.59184211 0.371950613,1 0.960371666,1 L12.0069506,1 C12.5919506,1 13.0195822,1.59526316 12.9580032,2.31368421 Z" id="XMLID_2_"></path>
                    <path d="M8.68101981,1.79947368 L4.00786191,1.79947368 L4.00101981,1.53263158 C3.97365138,0.694473684 4.50049349,0 5.17786191,0 L7.51444086,0 C8.18838823,0 8.71523033,0.694473684 8.69128296,1.52921053 L8.68101981,1.79947368 Z" id="XMLID_1_"></path>
                </g>
            </g>
        </g>
    </g>
</svg>