<svg xmlns="http://www.w3.org/2000/svg" width="18" height="14" viewBox="0 0 18 14">
    <path fill="#A7A7AF" fill-rule="evenodd" d="M17.191 2.086a7.134 7.134 0 0 1-1.707 1.76 9.671 9.671 0 0 1-.39 3.178 9.884 9.884 0 0 1-1.217 2.619 10.296 10.296 0 0 1-1.945 2.218c-.752.643-1.658 1.156-2.72 1.54a9.952 9.952 0 0 1-3.404.574c-1.904 0-3.646-.51-5.227-1.529.246.029.52.043.822.043 1.58 0 2.99-.485 4.226-1.455a3.32 3.32 0 0 1-1.981-.68 3.33 3.33 0 0 1-1.202-1.68c.232.034.446.052.643.052.302 0 .6-.039.896-.116A3.35 3.35 0 0 1 2.03 7.435a3.289 3.289 0 0 1-.775-2.166v-.042c.478.267.99.41 1.539.432a3.4 3.4 0 0 1-1.107-1.212 3.317 3.317 0 0 1-.41-1.623c0-.619.154-1.191.463-1.718a9.65 9.65 0 0 0 3.104 2.513 9.486 9.486 0 0 0 3.915 1.05 3.781 3.781 0 0 1-.084-.78c0-.942.332-1.745.996-2.41A3.28 3.28 0 0 1 12.08.485c.984 0 1.813.358 2.488 1.075a6.675 6.675 0 0 0 2.16-.822 3.305 3.305 0 0 1-1.496 1.876 6.783 6.783 0 0 0 1.96-.527z"/>
</svg>
