<svg xmlns="http://www.w3.org/2000/svg" width="90" height="46" viewBox="0 0 90 46">
  <defs>
    <style>
      .cls-1 {
        fill: #1e283f;
        fill-rule: evenodd;
      }
    </style>
  </defs>
  <path id="Logo_копия" data-name="Logo копия" class="cls-1" d="M338.008,61V14.993H428V61H338.008ZM382.083,16.93H339.9V59.065h42.181V16.93Zm44.02,0H383.977V59.065H426.1V16.93ZM395.138,49.922a1.877,1.877,0,1,0,3.754,0c0-1.25-1.479-1.782-2.115-1.952-2.021-.542-3.134-1.757-3.134-3.416a3.415,3.415,0,0,1,3.373-3.449,3.622,3.622,0,0,1,3.306,1.953l0.1,0.155-1.4,1.3-0.128-.247a2.017,2.017,0,0,0-1.886-1.251,1.519,1.519,0,0,0-1.5,1.534c0,0.906.945,1.352,1.739,1.566,2.23,0.6,3.51,1.986,3.51,3.8a3.75,3.75,0,1,1-7.5,0V49.5h1.872v0.422Zm0.972-22.558h4.459V29.3H396.11v5.183h-1.9V22.23h7.514v1.939H396.11v3.195Zm21.42,15.9h-3.765V53.536H411.87V43.263h-3.765V41.324h9.425v1.939ZM409.135,22.23h7.585v1.95h-5.678v3.239h4.507V29.37h-4.507v3.165h5.678v1.951h-7.585V22.23Zm-55.408-.2a6.116,6.116,0,0,1,3.917,1.432l0.352,0.3-1.341,1.37-0.288-.23a4.181,4.181,0,0,0-2.64-.933,4.392,4.392,0,0,0,0,8.783,4.239,4.239,0,0,0,2.7-.978l0.289-.242,1.339,1.37-0.343.3a6.111,6.111,0,0,1-3.983,1.489A6.329,6.329,0,0,1,353.727,22.03Zm3.126,21.211h-5.618v3.2h4.458v1.938h-4.458v5.182h-1.9V41.3h7.514v1.939Zm11.934-21.188a6.311,6.311,0,1,1-6.171,6.31A6.249,6.249,0,0,1,368.787,22.053Zm0,10.686a4.377,4.377,0,1,0-4.279-4.376A4.333,4.333,0,0,0,368.787,32.739Zm3.37,10.513h-5.678v3.24h4.506v1.95h-4.506v3.164h5.678v1.951h-7.586V41.3h7.586v1.95Z" transform="translate(-338 -15)"/>
</svg>
