<svg xmlns="http://www.w3.org/2000/svg" width="40.5" height="51.531" viewBox="0 0 40.5 51.531">
  <defs>
    <style>
      .cls-1 {
        fill: #66a8ad;
        fill-rule: evenodd;
      }
    </style>
  </defs>
  <path id="bowl_CofeFest" data-name="bowl CofeFest" class="cls-1" d="M285.594,206.977A16.886,16.886,0,0,0,268.7,222.363h7.163v0h0.169c0.036,0,.07,0,0.1,0h0.065v0a5.809,5.809,0,0,1-.031,11.617,8.2,8.2,0,0,1-16.373-.593V222.363h7.5a16.886,16.886,0,0,0-16.891-15.386,17.439,17.439,0,0,0-1.872.1l-0.775.084,0.148-.758a20.506,20.506,0,0,1,40.182,0l0.148,0.759-0.775-.084A17.439,17.439,0,0,0,285.594,206.977Zm-9.389,25.864a4.669,4.669,0,0,0,0-9.335v9.335ZM260.951,223.5v9.887a7.052,7.052,0,0,0,14.1,0V223.5h-14.1ZM249.2,205.877c0.4-.026.811-0.04,1.211-0.04A18.214,18.214,0,0,1,267.131,216.9a23.564,23.564,0,0,0-14.765-17.859A19.045,19.045,0,0,0,249.2,205.877Zm30.88-10.52a19.614,19.614,0,0,0-12.133-4.217,19.415,19.415,0,0,0-12.055,4.217A19.113,19.113,0,0,0,253.1,198.1,24.726,24.726,0,0,1,268,215.414,24.727,24.727,0,0,1,282.894,198.1,19.246,19.246,0,0,0,280.079,195.357Zm3.548,3.686A23.563,23.563,0,0,0,268.873,216.9,18.232,18.232,0,0,1,286.8,205.877,18.955,18.955,0,0,0,283.627,199.043Z" transform="translate(-247.75 -190)"/>
</svg>
